# xmcd
#
# Track frame offsets: 
#        150
#        9615
#        22285
#        32628
#        43415
#        57555
#        69168
#        80348
#        94710
#        106030
#        120853
#        133293
#        145080
#        159653
#        170268
#        184025
#        197205
#        210120
#        220730
#        233465
#
# Disc length: 3286 seconds
#
# Revision: 6
# Processed by: cddbd v1.5.2PL0 Copyright (c) Steve Scherf et al.
# Submitted via: ExactAudioCopy v1.0b1
#
DISCID=0b0cd414
DTITLE=Frankie Laine - Greatest Hits
DYEAR=1900
DGENRE=Country
TTITLE0=Rawhide
TTITLE1=Moonlight Gambler
TTITLE2=I Believe
TTITLE3=Hummingbird
TTITLE4=Don't Fence Me In
TTITLE5=Strange Lady In Town
TTITLE6=Rose, Rose, I Love You
TTITLE7=There Must Be A Reason
TTITLE8=Answer Me (Mutterlein)
TTITLE9=Jezebel
TTITLE10=High Noon (Do Not Forsake Me)
TTITLE11=Mule Train
TTITLE12=Jealousy
TTITLE13=Sixteen Tons
TTITLE14=Cool Water
TTITLE15=Wheel Of Fortune
TTITLE16=Rain, Rain, Rain
TTITLE17=A Women In Love
TTITLE18=Granada
TTITLE19=Cry Of The Wild Goose
EXTD=ID3G: 2
EXTT0=
EXTT1=
EXTT2=
EXTT3=
EXTT4=
EXTT5=
EXTT6=
EXTT7=
EXTT8=
EXTT9=
EXTT10=
EXTT11=
EXTT12=
EXTT13=
EXTT14=
EXTT15=
EXTT16=
EXTT17=
EXTT18=
EXTT19=
PLAYORDER=
